<svg width="108" height="30" viewBox="0 0 108 30" fill="none" xmlns="http://www.w3.org/2000/svg">
<g clip-path="url(#clip0)">
<path d="M-0.0593262 25.5328V20.3401C-0.0593262 17.591 1.34356 16.2164 4.14933 16.2164H8.15016V10.8201H11.7353V29.6564H4.14933C1.34356 29.6564 -0.0593262 28.2819 -0.0593262 25.5328ZM3.52583 25.7855C3.52583 26.3298 3.80294 26.6019 4.35717 26.6019H8.15016V19.2728H4.35717C3.80294 19.2728 3.52583 19.5431 3.52583 20.0837V25.7855Z" fill="white"/>
<path d="M18.9574 29.6563C16.1517 29.6563 14.7488 28.3072 14.7488 25.609C14.7488 22.9109 16.1517 21.5612 18.9574 21.5599H22.5426V20.0836C22.5426 19.5418 22.2655 19.2709 21.7113 19.2709H16.2036V17.3618L17.7624 16.2163H21.9191C24.7249 16.2163 26.1278 17.5909 26.1278 20.3399V29.6563H18.9574ZM18.3339 25.7854C18.3339 26.3296 18.611 26.6018 19.1653 26.6018H22.5426V24.309H19.1653C18.611 24.309 18.3339 24.5812 18.3339 25.1254V25.7854Z" fill="white"/>
<path d="M29.6609 24.7692V10.8201H33.246V25.1255C33.246 26.1764 33.8027 26.7528 34.9161 26.8546V29.911C31.4114 29.911 29.6597 28.197 29.6609 24.7692Z" fill="white"/>
<path d="M41.3 29.6563C38.4942 29.6563 37.0913 28.3072 37.0913 25.609C37.0913 22.9109 38.4942 21.5612 41.3 21.5599H44.8851V20.0836C44.8851 19.5381 44.6068 19.2709 44.0538 19.2709H38.5462V17.3618L40.1049 16.2163H44.2616C47.0674 16.2163 48.4703 17.5909 48.4703 20.3399V29.6563H41.3ZM40.6765 25.7854C40.6765 26.3296 40.9536 26.6018 41.5078 26.6018H44.8851V24.309H41.5078C40.9523 24.309 40.6752 24.5812 40.6765 25.1254V25.7854Z" fill="white"/>
<path d="M51.8994 25.5327V20.3399C51.8994 17.5909 53.3023 16.2163 56.1081 16.2163H60.9328L62.4916 17.3618V19.2727H56.3159C55.7604 19.2727 55.4833 19.5436 55.4846 20.0854V25.7872C55.4846 26.3315 55.7617 26.6036 56.3159 26.6036H62.499V28.5127L60.9402 29.6581H56.1155C53.3048 29.6569 51.8994 28.2818 51.8994 25.5327Z" fill="white"/>
<path d="M65.355 25.5327V20.3399C65.355 17.5909 66.7579 16.2163 69.5636 16.2163H73.2008C76.0065 16.2163 77.4094 17.5909 77.4094 20.3399V25.5327C77.4094 28.2818 76.0065 29.6563 73.2008 29.6563H69.5636C66.7579 29.6563 65.355 28.2818 65.355 25.5327ZM68.9401 25.7854C68.9401 26.3309 69.2185 26.6018 69.7715 26.6018H72.9929C73.5471 26.6018 73.8243 26.3296 73.8243 25.7854V20.0836C73.8243 19.5418 73.5471 19.2709 72.9929 19.2709H69.7733C69.2166 19.2709 68.942 19.5418 68.942 20.0836L68.9401 25.7854Z" fill="white"/>
<path d="M80.7346 25.5328V20.3401C80.7346 17.591 82.1375 16.2164 84.9433 16.2164H88.9441V10.8201H92.5293V29.6564H84.9433C82.1375 29.6564 80.7346 28.2819 80.7346 25.5328ZM84.3198 25.7855C84.3198 26.331 84.5981 26.6019 85.1511 26.6019H88.9441V19.2728H85.1511C84.5944 19.2728 84.3198 19.5437 84.3198 20.0855V25.7855Z" fill="white"/>
<path d="M96.0625 25.5327V20.3399C96.0625 17.5909 97.4654 16.2163 100.271 16.2163H103.648C106.454 16.2163 107.857 17.5909 107.857 20.3399V24.2599H99.6495V25.7854C99.6495 26.3309 99.9279 26.6018 100.481 26.6018H107.347V28.5109L105.788 29.6563H100.271C97.4654 29.6563 96.0625 28.2818 96.0625 25.5327ZM99.6495 21.5109H104.274V20.0836C104.274 19.5418 103.997 19.2709 103.442 19.2709H100.473C99.9167 19.2709 99.6421 19.5418 99.6421 20.0836L99.6495 21.5109Z" fill="white"/>
<path d="M0.886963 10.4292V2.62915H3.92655C4.98057 2.62915 5.50758 3.14915 5.50758 4.18915V6.68733C5.50758 7.72733 4.98057 8.24733 3.92655 8.24733H1.38799V10.4292H0.886963ZM1.38799 7.81824H3.97109C4.66387 7.81824 5.01026 7.47764 5.01026 6.79642V4.08006C5.01026 3.4037 4.66511 3.06551 3.9748 3.06551H1.38799V7.81824Z" fill="white"/>
<path d="M7.22217 6.68728V4.18183C7.22217 3.14183 7.75289 2.62183 8.81433 2.62183H10.3731C11.4271 2.62183 11.9541 3.14183 11.9541 4.18183V6.68728C11.9541 7.72728 11.4271 8.24728 10.3731 8.24728H8.81433C7.75289 8.24728 7.22217 7.72728 7.22217 6.68728ZM7.7232 6.79637C7.7232 7.47758 8.06835 7.81819 8.75866 7.81819H10.4176C11.1079 7.81819 11.4531 7.48001 11.4531 6.80364V4.08001C11.4531 3.40364 11.1079 3.06546 10.4176 3.06546H8.75866C8.06835 3.06546 7.7232 3.40364 7.7232 4.08001V6.79637Z" fill="white"/>
<path d="M13.0898 2.73824L13.1678 2.62915H13.5686L14.927 7.81824H15.1274L16.7418 2.63642H17.343L18.9575 7.81824H19.169L20.5274 2.63642H20.9171L20.995 2.74551L19.5364 8.2546H18.6235L17.0424 3.14188L15.4614 8.24733H14.5595L13.0898 2.73824Z" fill="white"/>
<path d="M22.1309 6.68728V4.18183C22.1309 3.14183 22.6616 2.62183 23.723 2.62183H25.1704C26.2245 2.62183 26.7515 3.14183 26.7515 4.18183V5.63637H22.6393V6.79273C22.6393 7.47637 22.982 7.81819 23.6674 7.81819H26.5362V8.01819L26.2245 8.24728H23.723C22.6616 8.24728 22.1309 7.72728 22.1309 6.68728ZM22.6319 5.20364H26.2504V4.08001C26.2504 3.40364 25.9053 3.06546 25.215 3.06546H23.6674C22.977 3.06546 22.6319 3.40364 22.6319 4.08001V5.20364Z" fill="white"/>
<path d="M28.5105 8.24733V3.22915C28.7579 2.82915 29.2144 2.62915 29.88 2.62915H30.9377L31.2495 2.85824V3.06551H29.8243C29.675 3.05253 29.5247 3.07223 29.3841 3.12317C29.2435 3.17411 29.1163 3.25502 29.0115 3.36006V8.24733H28.5105Z" fill="white"/>
<path d="M32.3962 6.68728V4.18183C32.3962 3.14183 32.927 2.62183 33.9884 2.62183H35.4433C36.4973 2.62183 37.0243 3.14183 37.0243 4.18183V5.63637H32.9047V6.79273C32.9047 7.4691 33.2498 7.80728 33.9402 7.80728H36.8016V8.01819L36.4899 8.24728H33.9884C32.927 8.24728 32.3962 7.72728 32.3962 6.68728ZM32.8973 5.20364H36.5158V4.08001C36.5158 3.40364 36.1707 3.06546 35.4804 3.06546H33.9327C33.2424 3.06546 32.8973 3.40364 32.8973 4.08001V5.20364Z" fill="white"/>
<path d="M38.7314 6.68734V4.18188C38.7314 3.14188 39.2622 2.62188 40.3236 2.62188H42.851V0.181885H43.3521V8.25461H40.3236C39.2622 8.24976 38.7314 7.72734 38.7314 6.68734ZM39.2325 6.79643C39.2325 7.47764 39.5776 7.81825 40.2679 7.81825H42.851V3.06552H40.2679C39.5776 3.06552 39.2325 3.4037 39.2325 4.08007V6.79643Z" fill="white"/>
<path d="M47.9172 8.24734V0.181885H48.4183V2.63643H50.9568C52.0108 2.63643 52.5379 3.15643 52.5379 4.19643V6.68734C52.5379 7.72734 52.0108 8.24734 50.9568 8.24734H47.9172ZM48.4183 7.81098H51.0014C51.6917 7.81098 52.0368 7.47279 52.0368 6.79643V4.08007C52.0368 3.4037 51.6917 3.06552 51.0014 3.06552H48.4183V7.81098Z" fill="white"/>
<path d="M53.6289 2.73824L53.6957 2.62915H54.1299L56.0227 7.81824H56.3122L58.205 2.63642H58.6392L58.706 2.74551L55.8334 10.4364H55.3992L55.3324 10.3273L56.1341 8.25461H55.6887L53.6289 2.73824Z" fill="white"/>
</g>
<defs>
<clipPath id="clip0">
<rect width="108" height="30" fill="white"/>
</clipPath>
</defs>
</svg>
