<svg width="30" height="30" xmlns="http://www.w3.org/2000/svg">

 <g>
  <title>background</title>
  <rect fill="none" id="canvas_background" height="402" width="582" y="-1" x="-1"/>
 </g>
 <g>
  <title>Layer 1</title>
  <path fill="#0f0f00" fill-opacity="0" stroke="#005a97" id="svg_1" d="m15,2c-6.075,0 -11,4.925 -11,11c0,7.233999 7.152,10.697001 8.048,11.503c0.915,0.823 1.671,2.667999 1.976,3.713999c0.148,0.508001 0.564,0.765001 0.976,0.776001c0.413,-0.011999 0.828,-0.268999 0.976,-0.776001c0.305,-1.046 1.061001,-2.889999 1.976,-3.713999c0.896,-0.806 8.048,-4.269001 8.048,-11.503c0,-6.075 -4.924999,-11 -11,-11zm0,14c-1.657,0 -3,-1.343 -3,-3s1.343,-3 3,-3s3,1.343 3,3s-1.343,3 -3,3z"/>
 </g>
</svg>