<svg width="256" height="40" viewBox="0 0 256 40" fill="none" xmlns="http://www.w3.org/2000/svg">
<path d="M3.44588 39.9997C2.9934 39.9997 2.54536 39.9106 2.12732 39.7375C1.70929 39.5644 1.32945 39.3107 1.0095 38.9908C0.689552 38.671 0.435754 38.2913 0.262598 37.8734C0.0894428 37.4555 0.000320781 37.0076 0.000320781 36.5553V3.49139C-0.00590709 3.03516 0.0786057 2.58223 0.248951 2.15892C0.419296 1.7356 0.672078 1.35035 0.992616 1.02551C1.31315 0.700681 1.69506 0.442751 2.11615 0.266704C2.53724 0.0906561 2.98913 0 3.44556 0C3.90199 0 4.35388 0.0906561 4.77497 0.266704C5.19606 0.442751 5.57797 0.700681 5.8985 1.02551C6.21904 1.35035 6.47182 1.7356 6.64217 2.15892C6.81251 2.58223 6.89703 3.03516 6.8908 3.49139V36.5553C6.8908 37.4687 6.52787 38.3447 5.88184 38.9906C5.23582 39.6365 4.35959 39.9995 3.44588 39.9997Z" fill="#006DB7"/>
<path d="M58.5703 39.9997C58.1179 39.9997 57.6698 39.9106 57.2518 39.7375C56.8337 39.5644 56.4539 39.3107 56.134 38.9908C55.814 38.671 55.5602 38.2913 55.3871 37.8734C55.2139 37.4555 55.1248 37.0076 55.1248 36.5553V13.0044L47.4369 22.2281C47.1136 22.6161 46.7089 22.9282 46.2515 23.1425C45.7941 23.3567 45.2952 23.4677 44.79 23.4677C44.2849 23.4677 43.786 23.3567 43.3286 23.1425C42.8711 22.9282 42.4664 22.6161 42.1432 22.2281L29.395 6.93515H18.8409L7.93069 20.0233L18.8409 33.1115H31.0084C31.4648 33.1053 31.9179 33.1898 32.3414 33.3601C32.7648 33.5304 33.1502 33.7831 33.4751 34.1035C33.8001 34.4239 34.0581 34.8057 34.2342 35.2266C34.4103 35.6476 34.501 36.0993 34.501 36.5556C34.501 37.0119 34.4103 37.4636 34.2342 37.8846C34.0581 38.3055 33.8001 38.6873 33.4751 39.0077C33.1502 39.3281 32.7648 39.5808 32.3414 39.7511C31.9179 39.9214 31.4648 40.0059 31.0084 39.9997H17.2268C16.7219 39.9997 16.2231 39.8887 15.7658 39.6746C15.3085 39.4605 14.9039 39.1485 14.5806 38.7607L0.799009 22.2281C0.282901 21.6092 0.000244141 20.829 0.000244141 20.0233C0.000244141 19.2176 0.282901 18.4374 0.799009 17.8186L14.5806 1.28662C14.9037 0.898624 15.3083 0.586446 15.7656 0.372218C16.2229 0.15799 16.7218 0.046958 17.2268 0.0469955H31.0084C31.5136 0.0469521 32.0125 0.157978 32.4699 0.372203C32.9274 0.586428 33.332 0.898609 33.6553 1.28662L44.79 14.6435L55.9247 1.28662C56.3777 0.741767 56.9877 0.349818 57.6716 0.16421C58.3556 -0.0213988 59.0801 0.00836541 59.7465 0.249444C60.4129 0.490523 60.9887 0.931185 61.3954 1.51135C61.8021 2.09152 62.0199 2.78295 62.0191 3.49139V36.5553C62.0191 37.0079 61.9299 37.456 61.7565 37.8741C61.5832 38.2922 61.3291 38.6721 61.0088 38.992C60.6885 39.3119 60.3083 39.5655 59.8899 39.7384C59.4715 39.9113 59.0231 40.0001 58.5703 39.9997Z" fill="#006DB7"/>
<path d="M27.7008 23.4677H20.5344C19.6206 23.4677 18.7442 23.1048 18.098 22.4589C17.4519 21.8129 17.0889 20.9368 17.0889 20.0233C17.0889 19.1098 17.4519 18.2337 18.098 17.5878C18.7442 16.9418 19.6206 16.5789 20.5344 16.5789H27.7008C28.6146 16.5789 29.491 16.9418 30.1371 17.5878C30.7833 18.2337 31.1463 19.1098 31.1463 20.0233C31.1463 20.9368 30.7833 21.8129 30.1371 22.4589C29.491 23.1048 28.6146 23.4677 27.7008 23.4677Z" fill="#006DB7"/>
<path d="M72.3462 18.2751H72.9165L74.8346 10.2153H78.7235L76.4679 18.8728L78.6978 29.0053H74.5754L73.1 21.2565H72.3481V29.0047H68.5112V10.2147H72.3481L72.3462 18.2751Z" fill="#262F36"/>
<path d="M83.3641 26.6723L83.0266 29.0047H79.2417L82.6379 10.2147H86.6563L90.0525 29.0047H86.2675L85.9307 26.6723H83.3641ZM83.7785 23.6922H85.5138L84.658 17.0317L83.7785 23.6922Z" fill="#262F36"/>
<path d="M95.6266 25.5064H99.1549V29.0047H90.5708L94.7971 13.7143H90.8839V10.2153H99.6726L95.6266 25.5064Z" fill="#262F36"/>
<path d="M100.708 10.2153H108.667V13.7143H104.57V18.1719H107.681V21.4111H104.57V25.5064H108.511V29.0047H100.708V10.2153Z" fill="#262F36"/>
<path d="M109.962 10.2153H113.54L115.459 17.757V10.2153H119.321V29.0053H115.459L113.436 21.152V29.0047H109.962V10.2153Z" fill="#262F36"/>
<path d="M120.876 10.2153H128.836V13.7143H124.74V18.1719H127.854V21.4111H124.743V25.5064H128.683V29.0047H120.876V10.2153Z" fill="#262F36"/>
<path d="M139.802 21.3591C139.8 21.7784 139.648 22.1832 139.374 22.5C139.089 22.8454 138.67 23.0182 138.116 23.0182L140.087 29.0047H136.198L134.384 23.0182H133.891V29.0047H130.132V10.2147H137.261C138.143 10.2147 138.786 10.4351 139.192 10.8759C139.598 11.3167 139.801 11.9084 139.802 12.651V21.3591ZM133.891 13.5065V19.9836H135.731C135.973 19.9836 136.094 19.8538 136.094 19.5943V13.8989C136.094 13.6424 135.973 13.5097 135.731 13.5097L133.891 13.5065Z" fill="#262F36"/>
<path d="M141.409 12.4958C141.409 11.8053 141.595 11.2525 141.967 10.8374C142.339 10.4223 142.896 10.2149 143.639 10.2153H149.653V13.7143H145.531C145.307 13.7143 145.194 13.8352 145.194 14.0772V25.221C145.194 25.4634 145.307 25.584 145.531 25.584H147.243V18.1719H150.899V29.0047H144.34C143.252 29.0047 142.492 28.78 142.059 28.3306C141.627 27.8813 141.411 27.1385 141.411 26.1021L141.409 12.4958Z" fill="#262F36"/>
<path d="M159.427 29.0047H155.461V24.236L151.857 10.2153H155.745L157.431 19.0787L159.142 10.2153H163.03L159.427 24.236V29.0047Z" fill="#262F36"/>
<path d="M167.723 20.1413V29.0047H164.066V10.2147H168.033L170.081 18.145L172.129 10.2147H176.121V29.0047H172.465V20.1413L170.08 27.6573L167.723 20.1413Z" fill="#262F36"/>
<path d="M181.281 26.6723L180.945 29.0047H177.16L180.556 10.2147H184.574L187.97 29.0047H184.186L183.849 26.6723H181.281ZM181.696 23.6922H183.433L182.578 17.0317L181.696 23.6922Z" fill="#262F36"/>
<path d="M198.676 21.3591C198.675 21.7783 198.523 22.183 198.249 22.5C197.963 22.8454 197.544 23.0182 196.991 23.0182L198.961 29.0047H195.072L193.258 23.0182H192.766V29.0047H189.006V10.2147H196.136C197.018 10.2147 197.661 10.4351 198.068 10.8759C198.474 11.3167 198.677 11.9084 198.677 12.651L198.676 21.3591ZM192.766 13.5065V19.9836H194.606C194.848 19.9836 194.969 19.8538 194.969 19.5943V13.8989C194.969 13.6424 194.848 13.5097 194.606 13.5097L192.766 13.5065Z" fill="#262F36"/>
<path d="M204.121 18.2751H204.691L206.61 10.2153H210.499L208.243 18.8728L210.473 29.0053H206.351L204.875 21.2565H204.123V29.0047H200.287V10.2147H204.123L204.121 18.2751Z" fill="#262F36"/>
<path d="M211.536 10.2153H219.495V13.7143H215.398V18.1719H218.51V21.4111H215.398V25.5064H219.339V29.0047H211.536V10.2153Z" fill="#262F36"/>
<path d="M229.139 10.2153V13.7143H226.624V29.0047H222.787V13.7143H220.272V10.2153H229.139Z" fill="#262F36"/>
<path d="M230.175 10.2153H233.934V29.0053H230.175V10.2153Z" fill="#262F36"/>
<path d="M235.49 10.2153H239.067L240.986 17.757V10.2153H244.849V29.0053H240.986L238.964 21.152V29.0047H235.49V10.2153Z" fill="#262F36"/>
<path d="M246.405 12.4958C246.405 11.8053 246.591 11.2525 246.962 10.8374C247.333 10.4223 247.891 10.2149 248.634 10.2153H254.649V13.7143H250.527C250.302 13.7143 250.19 13.8352 250.19 14.0772V25.221C250.19 25.4634 250.302 25.584 250.527 25.584H252.238V18.1719H255.894V29.0047H249.334C248.245 29.0047 247.484 28.78 247.052 28.3306C246.62 27.8813 246.405 27.1385 246.405 26.1021V12.4958Z" fill="#262F36"/>
<path d="M116.96 31.5795C116.467 31.5795 115.936 31.7077 115.367 31.9642L114.982 31.0876C115.607 30.8025 116.289 30.6597 116.976 30.6695C117.944 30.6695 118.694 30.9608 119.229 31.5436C119.763 32.1263 120.03 32.9326 120.03 33.9625C120.03 35.054 119.759 35.8926 119.217 36.4783C118.675 37.064 117.895 37.3571 116.878 37.3575C116.26 37.3669 115.646 37.2691 115.062 37.0683V36.1519C115.359 36.2374 115.645 36.3079 115.921 36.3635C116.203 36.4187 116.489 36.4461 116.776 36.4456C117.458 36.4456 117.977 36.2699 118.332 35.9185C118.687 35.567 118.876 35.0502 118.899 34.3678H115.89V33.4662H118.89C118.847 32.8732 118.655 32.4104 118.312 32.0777C117.97 31.7451 117.52 31.579 116.96 31.5795Z" fill="#262F36"/>
<path d="M122.373 32.3451V34.321H124.692V32.3451H125.737V37.2664H124.69V35.1438H122.371V37.2664H121.326V32.3451H122.373Z" fill="#262F36"/>
<path d="M129.383 37.3556C128.618 37.3556 128.019 37.1322 127.587 36.6854C127.154 36.2387 126.938 35.6239 126.939 34.8411C126.939 34.0377 127.139 33.4059 127.54 32.9454C127.941 32.485 128.491 32.2552 129.191 32.256C129.841 32.256 130.354 32.4533 130.731 32.8479C131.107 33.2425 131.295 33.7853 131.296 34.4762V35.0418H128.015C128.03 35.5189 128.158 35.886 128.4 36.1429C128.642 36.3999 128.984 36.5281 129.427 36.5277C129.699 36.5294 129.972 36.5019 130.239 36.4456C130.516 36.3816 130.787 36.2898 131.046 36.1718V37.0215C130.8 37.1395 130.54 37.2257 130.272 37.278C129.979 37.3315 129.681 37.3575 129.383 37.3556ZM129.19 33.048C128.858 33.048 128.592 33.1534 128.392 33.3642C128.192 33.575 128.072 33.8819 128.033 34.2851H130.268C130.262 33.8785 130.164 33.5707 129.974 33.3616C129.784 33.1525 129.523 33.048 129.192 33.048H129.19Z" fill="#262F36"/>
<path d="M134.983 37.3556C134.359 37.3556 133.876 37.1316 133.532 36.6835H133.467C133.51 37.0991 133.532 37.3511 133.532 37.4396V39.4559H132.486V32.3452H133.331C133.355 32.4371 133.404 32.6566 133.478 33.0038H133.532C133.858 32.5057 134.348 32.2565 135.001 32.256C135.615 32.256 136.093 32.4786 136.436 32.9236C136.779 33.3687 136.95 33.9931 136.949 34.7968C136.949 35.601 136.775 36.2284 136.427 36.679C136.078 37.1297 135.597 37.3552 134.983 37.3556ZM134.726 33.1102C134.31 33.1102 134.007 33.2319 133.816 33.4751C133.625 33.7184 133.529 34.107 133.528 34.641V34.7968C133.528 35.3954 133.623 35.8291 133.813 36.098C134.003 36.3669 134.313 36.5012 134.743 36.5008C134.91 36.507 135.075 36.4691 135.222 36.3909C135.369 36.3127 135.493 36.1971 135.58 36.0557C135.776 35.7594 135.874 35.3368 135.874 34.7879C135.874 34.2389 135.777 33.8214 135.582 33.5354C135.391 33.252 135.106 33.1102 134.729 33.1102H134.726Z" fill="#262F36"/>
<path d="M141.348 32.3451V33.1641H139.212V37.2684H138.165V32.3451H141.348Z" fill="#262F36"/>
<path d="M146.663 34.7968C146.663 35.601 146.457 36.2284 146.044 36.679C145.631 37.1296 145.057 37.3552 144.321 37.3556C143.894 37.364 143.473 37.2562 143.102 37.0439C142.748 36.8349 142.464 36.5241 142.288 36.1519C142.09 35.7288 141.993 35.2661 142.003 34.7994C142.003 34.0016 142.208 33.3787 142.617 32.9307C143.027 32.4826 143.605 32.2586 144.35 32.2586C145.062 32.2586 145.625 32.4877 146.041 32.9461C146.456 33.4044 146.663 34.0213 146.663 34.7968ZM143.079 34.7968C143.079 35.9332 143.499 36.5012 144.339 36.5008C145.17 36.5008 145.585 35.9328 145.586 34.7968C145.586 33.6729 145.167 33.1107 144.33 33.1102C143.891 33.1102 143.572 33.2556 143.376 33.5463C143.179 33.837 143.08 34.2539 143.079 34.7968Z" fill="#262F36"/>
<path d="M149.85 37.3556C149.105 37.3556 148.539 37.1382 148.152 36.7034C147.764 36.2686 147.571 35.6449 147.571 34.8321C147.571 34.0049 147.773 33.3687 148.178 32.9236C148.583 32.4786 149.169 32.256 149.935 32.256C150.417 32.2483 150.896 32.3471 151.336 32.5453L151.021 33.386C150.578 33.215 150.213 33.1295 149.926 33.1295C149.074 33.1295 148.648 33.6947 148.648 34.8251C148.648 35.3766 148.755 35.7911 148.968 36.0685C149.182 36.346 149.493 36.4847 149.901 36.4847C150.365 36.4852 150.82 36.3655 151.223 36.1372V37.0497C151.037 37.159 150.835 37.2386 150.625 37.2857C150.37 37.3366 150.11 37.3601 149.85 37.3556Z" fill="#262F36"/>
<path d="M153.424 32.3451V34.321H155.743V32.3451H156.789V37.2664H155.743V35.1438H153.424V37.2664H152.378V32.3451H153.424Z" fill="#262F36"/>
<path d="M161.365 37.2665L161.156 36.5809H161.12C160.882 36.8802 160.644 37.0841 160.403 37.1927C160.163 37.3013 159.855 37.3556 159.48 37.3556C158.996 37.3556 158.619 37.225 158.347 36.9638C158.076 36.7026 157.94 36.3332 157.94 35.8556C157.94 35.3486 158.129 34.9659 158.506 34.7077C158.882 34.4495 159.457 34.3086 160.228 34.2851L161.079 34.2582V33.9959C161.079 33.6816 161.005 33.4465 160.858 33.2905C160.711 33.1344 160.483 33.0566 160.175 33.057C159.929 33.0562 159.684 33.0936 159.449 33.168C159.221 33.2411 158.998 33.3289 158.781 33.4309L158.443 32.6831C158.721 32.5391 159.015 32.4313 159.32 32.3625C159.615 32.2927 159.916 32.2561 160.218 32.2535C160.845 32.2535 161.317 32.3899 161.636 32.6626C161.955 32.9354 162.115 33.3642 162.115 33.9491V37.2639L161.365 37.2665ZM159.807 36.5546C160.186 36.5546 160.491 36.4478 160.721 36.234C160.951 36.0202 161.067 35.7227 161.067 35.3413V34.9142L160.435 34.9411C159.942 34.9591 159.584 35.0414 159.359 35.188C159.135 35.3347 159.023 35.5594 159.023 35.862C159.023 36.082 159.087 36.2513 159.216 36.3751C159.344 36.4988 159.544 36.5546 159.807 36.5546Z" fill="#262F36"/>
<path d="M163.288 34.312C163.288 33.2141 163.474 32.3702 163.846 31.7802C164.219 31.1902 164.812 30.8103 165.625 30.6406C166.238 30.5162 166.946 30.3945 167.748 30.2757L167.894 31.1972C166.921 31.3452 166.209 31.4608 165.758 31.5442C165.292 31.6297 164.956 31.8221 164.75 32.1213C164.543 32.4206 164.424 32.8663 164.392 33.4584H164.456C164.624 33.2137 164.852 33.0168 165.119 32.887C165.392 32.7519 165.692 32.6825 165.996 32.6844C166.601 32.6844 167.072 32.8768 167.411 33.2616C167.75 33.6463 167.919 34.1833 167.919 34.8725C167.919 35.6647 167.713 36.2774 167.302 36.7104C166.891 37.1435 166.322 37.3601 165.595 37.3601C164.874 37.3601 164.309 37.0931 163.9 36.5591C163.49 36.0251 163.286 35.2761 163.288 34.312ZM165.669 36.5007C166.446 36.5007 166.835 35.9907 166.835 34.9706C166.835 33.9873 166.484 33.4956 165.78 33.4956C165.587 33.496 165.395 33.5384 165.219 33.62C165.037 33.7043 164.868 33.8154 164.719 33.9497C164.579 34.0707 164.459 34.2134 164.365 34.3723C164.365 35.0726 164.476 35.6027 164.699 35.9627C164.796 36.1322 164.938 36.272 165.109 36.3668C165.28 36.4616 165.473 36.5079 165.669 36.5007Z" fill="#262F36"/>
<path d="M171.549 34.7346V32.3451H172.524V34.7346L174.42 32.3451H175.524L173.588 34.7256L175.697 37.2664H174.543L172.522 34.7699V37.2664H171.547V34.7699L169.531 37.2664H168.382L170.488 34.7256L168.556 32.3451H169.66L171.549 34.7346Z" fill="#262F36"/>
<path d="M179.535 37.2665L179.325 36.5809H179.289C179.052 36.8802 178.813 37.0841 178.573 37.1927C178.333 37.3013 178.024 37.3556 177.647 37.3556C177.164 37.3556 176.786 37.225 176.514 36.9638C176.243 36.7026 176.107 36.3332 176.107 35.8556C176.107 35.3486 176.295 34.9659 176.672 34.7077C177.049 34.4495 177.623 34.3086 178.395 34.2851L179.245 34.2582V33.9959C179.245 33.6816 179.172 33.4465 179.025 33.2905C178.877 33.1344 178.649 33.0566 178.341 33.057C178.095 33.0562 177.85 33.0936 177.615 33.168C177.387 33.2411 177.164 33.3289 176.947 33.4309L176.609 32.6831C176.886 32.5391 177.181 32.4313 177.486 32.3625C177.78 32.2927 178.081 32.2562 178.384 32.2535C179.009 32.2535 179.482 32.3899 179.801 32.6626C180.12 32.9354 180.279 33.3642 180.279 33.9491V37.2639L179.535 37.2665ZM177.976 36.5546C178.356 36.5546 178.661 36.4478 178.891 36.234C179.121 36.0202 179.237 35.7235 179.239 35.3439V34.9168L178.607 34.9437C178.114 34.9617 177.756 35.044 177.532 35.1906C177.308 35.3373 177.196 35.5619 177.196 35.8646C177.196 36.0846 177.26 36.2539 177.388 36.3776C177.516 36.5014 177.715 36.5546 177.976 36.5546Z" fill="#262F36"/>
<path d="M188.316 34.7968C188.316 35.6036 188.12 36.2316 187.727 36.681C187.334 37.1303 186.785 37.3552 186.082 37.3556C185.435 37.3556 184.922 37.1649 184.542 36.7836C184.162 36.4022 183.941 35.8556 183.877 35.1438H182.791V37.2665H181.741V32.3452H182.787V34.321H183.882C183.956 33.6682 184.185 33.1607 184.57 32.7986C184.955 32.4365 185.464 32.2556 186.099 32.256C186.783 32.256 187.323 32.4852 187.719 32.9435C188.115 33.4018 188.314 34.0196 188.316 34.7968ZM184.943 34.7968C184.943 35.3573 185.032 35.7814 185.212 36.0692C185.392 36.3569 185.685 36.5008 186.091 36.5008C186.494 36.5008 186.786 36.3569 186.968 36.0692C187.149 35.7814 187.24 35.3573 187.239 34.7968C187.239 34.2411 187.149 33.8212 186.968 33.5373C186.787 33.2535 186.495 33.1111 186.091 33.1102C185.684 33.1102 185.391 33.2526 185.212 33.5373C185.033 33.8221 184.943 34.2419 184.943 34.7968Z" fill="#262F36"/>
<path d="M196.502 36.4565H197.208V38.9973H196.226V37.2658H189.527V32.3451H190.573V36.4385H192.492V32.3451H193.537V36.4385H195.452V32.3451H196.502V36.4565Z" fill="#262F36"/>
<path d="M201.185 37.2665L200.975 36.5809H200.94C200.703 36.8802 200.464 37.0841 200.223 37.1927C199.983 37.3013 199.674 37.3556 199.298 37.3556C198.814 37.3556 198.436 37.225 198.165 36.9638C197.893 36.7026 197.757 36.3332 197.757 35.8556C197.757 35.3486 197.946 34.9659 198.322 34.7077C198.699 34.4495 199.273 34.3086 200.045 34.2851L200.896 34.2582V33.9959C200.896 33.6816 200.822 33.4465 200.675 33.2905C200.528 33.1344 200.3 33.0566 199.992 33.057C199.746 33.0562 199.501 33.0936 199.266 33.168C199.038 33.2411 198.815 33.3289 198.598 33.4309L198.26 32.6831C198.538 32.5391 198.832 32.4313 199.137 32.3625C199.432 32.2927 199.733 32.2561 200.035 32.2535C200.661 32.2535 201.134 32.3899 201.453 32.6626C201.772 32.9354 201.932 33.3642 201.932 33.9491V37.2639L201.185 37.2665ZM199.627 36.5546C200.006 36.5546 200.311 36.4478 200.541 36.234C200.772 36.0202 200.887 35.7227 200.887 35.3413V34.9142L200.254 34.9411C199.762 34.9591 199.404 35.0414 199.18 35.188C198.955 35.3347 198.843 35.5594 198.843 35.862C198.843 36.082 198.908 36.2513 199.039 36.3751C199.171 36.4988 199.366 36.5546 199.627 36.5546Z" fill="#262F36"/>
<path d="M203.895 37.2665H202.725L204.096 35.2541C203.785 35.1732 203.51 34.993 203.312 34.7411C203.122 34.4969 203.027 34.1936 203.027 33.8311C203.027 33.3655 203.194 33.0021 203.526 32.7409C203.858 32.4796 204.312 32.3484 204.888 32.3471H207.133V37.2684H206.083V35.3708H205.092L203.895 37.2665ZM204.047 33.84C204.047 34.0919 204.143 34.281 204.334 34.4076C204.526 34.5341 204.782 34.5983 205.104 34.6H206.079V33.1378H204.94C204.655 33.1378 204.434 33.1985 204.278 33.32C204.201 33.3823 204.139 33.4623 204.099 33.5534C204.058 33.6445 204.041 33.7439 204.047 33.8432V33.84Z" fill="#262F36"/>
<path d="M214.049 32.3451H215.197L213.163 34.7179L215.371 37.2677H214.168L212.041 34.7712V37.2677H210.994V32.3451H212.04V34.7346L214.049 32.3451Z" fill="#262F36"/>
<path d="M220.547 34.7968C220.547 35.601 220.341 36.2284 219.928 36.679C219.516 37.1296 218.942 37.3552 218.205 37.3556C217.778 37.3639 217.357 37.2562 216.986 37.0439C216.632 36.8347 216.348 36.524 216.172 36.1519C215.974 35.7288 215.877 35.2661 215.887 34.7994C215.887 34.0016 216.092 33.3787 216.501 32.9307C216.91 32.4826 217.488 32.2586 218.233 32.2586C218.945 32.2586 219.509 32.4877 219.925 32.9461C220.34 33.4044 220.548 34.0213 220.547 34.7968ZM216.964 34.7968C216.964 35.9332 217.384 36.5012 218.223 36.5008C219.054 36.5008 219.47 35.9328 219.47 34.7968C219.47 33.6729 219.051 33.1107 218.214 33.1102C217.776 33.1102 217.457 33.2556 217.26 33.5463C217.062 33.837 216.964 34.2539 216.964 34.7968Z" fill="#262F36"/>
<path d="M224.575 36.2654L224.633 36.0518C224.755 35.6093 224.86 35.2697 224.949 35.0328L226.053 32.3451H227.446V37.2664H226.48V33.2904L226.4 33.5572C226.306 33.9143 226.193 34.2662 226.062 34.6115L224.985 37.2639H224.193L223.118 34.5967C222.957 34.1703 222.82 33.735 222.708 33.293V37.269H221.752V32.3451H223.135L224.204 34.9527C224.297 35.1925 224.421 35.6301 224.575 36.2654Z" fill="#262F36"/>
<path d="M233.246 32.3451V37.2664H232.195V33.1724H229.988V37.2664H228.942V32.3451H233.246Z" fill="#262F36"/>
<path d="M237.822 37.2665L237.612 36.5809H237.577C237.34 36.8802 237.101 37.0841 236.86 37.1927C236.62 37.3013 236.312 37.3556 235.935 37.3556C235.451 37.3556 235.073 37.225 234.802 36.9638C234.53 36.7026 234.395 36.3332 234.395 35.8556C234.395 35.3486 234.583 34.9659 234.96 34.7077C235.336 34.4495 235.911 34.3086 236.682 34.2851L237.533 34.2582V33.9959C237.533 33.6816 237.459 33.4465 237.312 33.2905C237.165 33.1344 236.937 33.0566 236.629 33.057C236.383 33.0562 236.138 33.0936 235.903 33.168C235.675 33.2411 235.452 33.3289 235.236 33.4309L234.897 32.6831C235.175 32.5391 235.47 32.4313 235.774 32.3625C236.069 32.2927 236.37 32.2561 236.673 32.2535C237.299 32.2535 237.771 32.3899 238.09 32.6626C238.409 32.9354 238.569 33.3642 238.569 33.9491V37.2639L237.822 37.2665ZM236.264 36.5546C236.644 36.5546 236.949 36.4478 237.179 36.234C237.409 36.0202 237.524 35.7227 237.524 35.3413V34.9142L236.891 34.9411C236.399 34.9591 236.041 35.0414 235.817 35.188C235.592 35.3347 235.48 35.5594 235.481 35.862C235.481 36.082 235.545 36.2513 235.676 36.3751C235.808 36.4988 236.003 36.5546 236.264 36.5546Z" fill="#262F36"/>
<path d="M241.076 32.3451V34.321H243.395V32.3451H244.441V37.2664H243.395V35.1438H241.076V37.2664H240.03V32.3451H241.076Z" fill="#262F36"/>
<path d="M246.938 32.3451V34.8693C246.938 35.163 246.914 35.5946 246.867 36.1641L249.337 32.3464H250.615V37.2677H249.609V34.7878C249.609 34.6512 249.616 34.4306 249.633 34.1247C249.65 33.8188 249.663 33.597 249.675 33.4572L247.214 37.2664H245.936V32.3451H246.938Z" fill="#262F36"/>
<path d="M252.608 37.2665H251.438L252.809 35.2541C252.499 35.1733 252.223 34.9931 252.025 34.7411C251.835 34.4969 251.74 34.1936 251.74 33.8311C251.74 33.3655 251.907 33.0021 252.239 32.7409C252.571 32.4796 253.025 32.3484 253.601 32.3471H255.847V37.2684H254.796V35.3708H253.802L252.608 37.2665ZM252.76 33.84C252.76 34.0919 252.856 34.281 253.047 34.4076C253.239 34.5341 253.495 34.5983 253.817 34.6H254.791V33.1378H253.654C253.369 33.1378 253.149 33.1985 252.993 33.32C252.915 33.3821 252.853 33.4621 252.813 33.5532C252.772 33.6442 252.754 33.7437 252.76 33.8432V33.84Z" fill="#262F36"/>
<path d="M87.7431 1.31035C87.2504 1.31035 86.7192 1.43861 86.1496 1.69513L85.7646 0.818476C86.3902 0.533438 87.0711 0.390634 87.7585 0.400352C88.7259 0.400352 89.4766 0.691714 90.0108 1.27444C90.545 1.85716 90.8121 2.66348 90.8121 3.6934C90.8121 4.78489 90.5413 5.62349 89.9999 6.2092C89.4585 6.79492 88.6788 7.08799 87.661 7.08842C87.0434 7.09787 86.4289 7.00001 85.8448 6.7992V5.88278C86.1412 5.96829 86.4275 6.03883 86.7038 6.09441C86.9853 6.14957 87.2715 6.17707 87.5583 6.1765C88.2426 6.1765 88.7611 6.00078 89.114 5.64935C89.4668 5.29792 89.6561 4.78104 89.6817 4.0987H86.6724V3.19704H89.6727C89.63 2.60406 89.4375 2.14125 89.0954 1.80864C88.7532 1.47602 88.3025 1.30992 87.7431 1.31035Z" fill="#262F36"/>
<path d="M93.1554 2.07607V4.0519H95.4745V2.07607H96.5202V6.99737H95.4745V4.87468H93.1554V6.99737H92.1091V2.07607H93.1554Z" fill="#262F36"/>
<path d="M100.166 7.08648C99.4008 7.08648 98.8021 6.8631 98.3697 6.41633C97.9373 5.96956 97.7216 5.35477 97.7224 4.57196C97.7224 3.76821 97.9226 3.13632 98.3229 2.67629C98.7232 2.21627 99.2738 1.98647 99.9748 1.9869C100.624 1.9869 101.138 2.18421 101.514 2.57882C101.891 2.97343 102.08 3.51618 102.08 4.20706V4.77269H98.7995C98.8145 5.24981 98.9428 5.61685 99.1844 5.87379C99.4261 6.13074 99.7682 6.259 100.211 6.25857C100.484 6.26031 100.756 6.23279 101.024 6.17648C101.301 6.11225 101.572 6.02052 101.831 5.90265V6.75237C101.585 6.8704 101.325 6.9566 101.057 7.00888C100.763 7.06251 100.465 7.08849 100.166 7.08648ZM99.9735 2.7789C99.6412 2.7789 99.3747 2.88429 99.1741 3.09506C98.9736 3.30583 98.8543 3.6128 98.8162 4.01596H101.051C101.044 3.60938 100.946 3.30156 100.757 3.09249C100.567 2.88343 100.307 2.7789 99.9748 2.7789H99.9735Z" fill="#262F36"/>
<path d="M105.766 7.08649C105.142 7.08649 104.658 6.86246 104.315 6.41441H104.25C104.293 6.82997 104.315 7.082 104.315 7.1705V9.18673H103.268V2.07605H104.114C104.137 2.16797 104.186 2.3875 104.261 2.73466H104.315C104.64 2.23659 105.13 1.98734 105.783 1.98691C106.398 1.98691 106.876 2.20944 107.219 2.6545C107.561 3.09956 107.732 3.72396 107.732 4.52772C107.732 5.3319 107.558 5.9593 107.209 6.40992C106.861 6.86054 106.379 7.08606 105.766 7.08649ZM105.509 2.84111C105.093 2.84111 104.79 2.96274 104.599 3.20601C104.408 3.44927 104.312 3.8379 104.312 4.37188V4.52772C104.312 5.12626 104.407 5.55999 104.597 5.82891C104.787 6.09782 105.097 6.23207 105.527 6.23164C105.693 6.23733 105.857 6.19918 106.004 6.12104C106.15 6.0429 106.273 5.92753 106.361 5.78658C106.557 5.4903 106.655 5.06769 106.655 4.51874C106.654 3.96979 106.557 3.55231 106.364 3.26629C106.173 2.98284 105.889 2.84111 105.512 2.84111H105.509Z" fill="#262F36"/>
<path d="M112.131 2.07607V2.895H109.994V6.99929H108.948V2.07607H112.131Z" fill="#262F36"/>
<path d="M114.081 2.07607V4.6002C114.081 4.89392 114.057 5.32551 114.009 5.89498L116.48 2.07735H117.757V6.99865H116.751V4.51876C116.751 4.38216 116.759 4.16156 116.775 3.85566C116.792 3.54976 116.806 3.32787 116.818 3.18807L114.356 6.99737H113.079V2.07607H114.081Z" fill="#262F36"/>
<path d="M119.751 6.99734H118.581L119.951 4.98496C119.642 4.90506 119.367 4.726 119.168 4.47513C118.978 4.23058 118.883 3.92725 118.883 3.56513C118.883 3.09955 119.049 2.73615 119.382 2.47493C119.715 2.21371 120.169 2.08246 120.744 2.08118H122.989V7.00247H121.938V5.10168H120.946L119.751 6.99734ZM119.902 3.5709C119.902 3.82315 119.998 4.01233 120.189 4.13845C120.381 4.26457 120.638 4.32763 120.959 4.32763H121.934V2.86869H120.797C120.512 2.86869 120.292 2.9294 120.136 3.05081C120.058 3.11291 119.996 3.19286 119.955 3.28392C119.915 3.37499 119.896 3.47451 119.902 3.57411V3.5709Z" fill="#262F36"/>
<path d="M127.309 5.9963L127.367 5.78275C127.489 5.34026 127.594 5.00059 127.683 4.76373L128.787 2.07607H130.18V6.99737H129.217V3.02134L129.137 3.28811C129.043 3.64531 128.93 3.99724 128.798 4.3424L127.721 6.9948H126.929L125.852 4.32509C125.691 3.89863 125.554 3.46334 125.443 3.02134V6.99737H124.486V2.07607H125.865L126.933 4.68357C127.029 4.92342 127.155 5.36099 127.309 5.9963Z" fill="#262F36"/>
<path d="M133.825 7.08648C133.06 7.08648 132.461 6.8631 132.029 6.41633C131.597 5.96956 131.381 5.35477 131.382 4.57196C131.382 3.7682 131.582 3.13632 131.982 2.67629C132.383 2.21627 132.933 1.98647 133.634 1.9869C134.284 1.9869 134.797 2.18421 135.174 2.57882C135.551 2.97343 135.739 3.51618 135.74 4.20706V4.77269H132.459C132.474 5.24981 132.602 5.61684 132.844 5.87379C133.085 6.13073 133.428 6.25899 133.87 6.25857C134.143 6.26031 134.416 6.23279 134.683 6.17648C134.961 6.11225 135.231 6.02051 135.491 5.90265V6.75236C135.245 6.8704 134.984 6.9566 134.716 7.00888C134.422 7.06248 134.124 7.08846 133.825 7.08648ZM133.633 2.7789C133.3 2.7789 133.033 2.88429 132.834 3.09506C132.634 3.30583 132.515 3.6128 132.476 4.01596H134.71C134.704 3.60938 134.606 3.30156 134.416 3.09249C134.227 2.88343 133.966 2.7789 133.634 2.7789H133.633Z" fill="#262F36"/>
<path d="M137.974 2.07607V4.0519H140.293V2.07607H141.339V6.99737H140.293V4.87468H137.974V6.99737H136.928V2.07607H137.974Z" fill="#262F36"/>
<path d="M147.628 4.46553V2.07607H148.603V4.46553L150.499 2.07607H151.602L149.665 4.45655L151.775 6.99737H150.62L148.599 4.5008V6.99737H147.624V4.5008L145.608 6.99737H144.46L146.565 4.45655L144.634 2.07607H145.737L147.628 4.46553Z" fill="#262F36"/>
<path d="M155.614 6.99735L155.405 6.31181H155.369C155.131 6.61108 154.893 6.81501 154.652 6.9236C154.412 7.03198 154.103 7.08649 153.727 7.08649C153.243 7.08649 152.865 6.95588 152.594 6.69466C152.322 6.43344 152.186 6.06405 152.186 5.5865C152.186 5.07945 152.375 4.69681 152.752 4.43858C153.129 4.18035 153.703 4.03948 154.475 4.01597L155.325 3.98903V3.72674C155.325 3.41251 155.251 3.17737 155.105 3.02132C154.958 2.86527 154.73 2.78746 154.421 2.78789C154.175 2.78703 153.93 2.82446 153.696 2.89883C153.468 2.97194 153.245 3.05977 153.028 3.16176L152.689 2.41401C152.967 2.27003 153.261 2.16227 153.566 2.09336C153.861 2.02359 154.162 1.98702 154.464 1.98434C155.09 1.98434 155.563 2.12073 155.882 2.39349C156.201 2.66625 156.361 3.09507 156.361 3.67993V6.99478L155.614 6.99735ZM154.056 6.28551C154.436 6.28551 154.741 6.17863 154.97 5.96486C155.2 5.7511 155.315 5.45354 155.316 5.07218V4.64508L154.684 4.67201C154.191 4.68997 153.833 4.77227 153.609 4.91891C153.384 5.06555 153.272 5.29022 153.272 5.59291C153.272 5.81288 153.337 5.98218 153.469 6.10595C153.601 6.22972 153.795 6.28551 154.056 6.28551Z" fill="#262F36"/>
<path d="M157.536 4.04287C157.536 2.94498 157.723 2.10103 158.095 1.51104C158.468 0.921049 159.06 0.541188 159.873 0.371458C160.488 0.247047 161.196 0.125415 161.997 0.00656128L162.144 0.928103C161.17 1.07646 160.458 1.1921 160.007 1.27504C159.541 1.36055 159.205 1.55187 158.999 1.849C158.793 2.14614 158.673 2.5929 158.64 3.18931H158.705C158.873 2.94469 159.101 2.74781 159.368 2.61791C159.64 2.48284 159.941 2.41344 160.245 2.41527C160.85 2.41527 161.322 2.60765 161.66 2.99243C161.998 3.37721 162.167 3.91419 162.167 4.60336C162.167 5.39558 161.962 6.00823 161.551 6.44132C161.14 6.8744 160.571 7.09095 159.844 7.09095C159.123 7.09095 158.558 6.82396 158.148 6.28997C157.739 5.75599 157.535 5.00695 157.536 4.04287ZM159.918 6.23161C160.695 6.23161 161.084 5.72157 161.084 4.70148C161.084 3.71816 160.732 3.2265 160.029 3.2265C159.836 3.22678 159.644 3.26923 159.469 3.35092C159.286 3.43512 159.117 3.54623 158.968 3.68054C158.828 3.80139 158.708 3.94411 158.614 4.10315C158.614 4.80345 158.725 5.33359 158.948 5.69357C159.045 5.86315 159.187 6.00292 159.358 6.09775C159.529 6.19257 159.723 6.23886 159.918 6.23161Z" fill="#262F36"/>
<path d="M168.095 8.7372H167.12V6.99736H163.746V8.7372H162.78V6.18741H163.18C163.556 5.63123 163.838 5.01728 164.014 4.36998C164.227 3.6225 164.35 2.85251 164.382 2.07607H167.373V6.18741H168.094L168.095 8.7372ZM166.344 6.18741V2.87704H165.286C165.23 3.48963 165.112 4.09492 164.933 4.68357C164.782 5.21191 164.561 5.71768 164.276 6.18741H166.344Z" fill="#262F36"/>
<path d="M170.054 4.04292H171.05C171.739 4.04292 172.248 4.16156 172.577 4.39884C172.907 4.63612 173.072 4.99204 173.071 5.4666C173.071 5.97407 172.9 6.35607 172.558 6.61259C172.216 6.86911 171.714 6.99737 171.052 6.99737H169.009V2.07607H170.055L170.054 4.04292ZM172.034 5.49353C172.034 5.24727 171.943 5.07519 171.76 4.97729C171.577 4.87938 171.316 4.83043 170.975 4.83043H170.054V6.22268H170.841C171.263 6.22268 171.567 6.16347 171.754 6.04504C171.94 5.92662 172.033 5.74278 172.034 5.49353ZM174.896 6.99737H173.846V2.07607H174.896V6.99737Z" fill="#262F36"/>
<path d="M179.445 2.07607H180.593L178.559 4.44886L180.073 6.18741H181.021V8.7372H180.055V6.99736H179.565L177.438 4.5008V6.99736H176.392V2.07607H177.438V4.46553L179.445 2.07607Z" fill="#262F36"/>
<path d="M185.606 2.07607V2.895H184.002V6.99929H182.951V2.895H181.347V2.07607H185.606Z" fill="#262F36"/>
<path d="M189.631 6.99735L189.422 6.31181H189.387C189.149 6.61108 188.91 6.81501 188.67 6.9236C188.43 7.03219 188.121 7.08649 187.744 7.08649C187.26 7.08649 186.883 6.95588 186.611 6.69466C186.339 6.43344 186.204 6.06405 186.204 5.5865C186.204 5.07945 186.393 4.69681 186.77 4.43858C187.146 4.18035 187.72 4.03948 188.492 4.01597L189.342 3.98903V3.72674C189.342 3.41251 189.269 3.17737 189.122 3.02132C188.975 2.86527 188.748 2.78746 188.439 2.78789C188.193 2.78698 187.948 2.82441 187.713 2.89883C187.485 2.97194 187.262 3.05977 187.045 3.16176L186.707 2.41401C186.984 2.26993 187.279 2.16216 187.584 2.09336C187.878 2.02363 188.179 1.98706 188.482 1.98434C189.108 1.98434 189.58 2.12073 189.899 2.39349C190.218 2.66625 190.378 3.09507 190.378 3.67993V6.99478L189.631 6.99735ZM188.074 6.28551C188.453 6.28551 188.758 6.17863 188.989 5.96486C189.219 5.7511 189.333 5.45354 189.333 5.07218V4.64508L188.701 4.67201C188.208 4.68997 187.85 4.77227 187.626 4.91891C187.402 5.06555 187.29 5.29022 187.29 5.59291C187.29 5.81288 187.354 5.98218 187.486 6.10595C187.618 6.22972 187.815 6.28551 188.076 6.28551H188.074Z" fill="#262F36"/>
<path d="M191.094 2.07607H192.233L193.234 4.8657C193.376 5.22727 193.478 5.60344 193.537 5.98733H193.573C193.609 5.78614 193.658 5.58754 193.72 5.39284C193.791 5.16027 194.168 4.05467 194.85 2.07607H195.982L193.877 7.65148C193.492 8.67499 192.854 9.18675 191.963 9.18675C191.735 9.18694 191.508 9.16156 191.286 9.11107V8.28316C191.463 8.32089 191.644 8.33874 191.825 8.33639C192.329 8.33639 192.684 8.04417 192.889 7.45974L193.072 6.99736L191.094 2.07607Z" fill="#262F36"/>
<path d="M202.15 2.07607H203.299L201.264 4.44886L203.472 6.99865H202.269L200.141 4.50209V6.99865H199.095V2.07607H200.141V4.46553L202.15 2.07607Z" fill="#262F36"/>
<path d="M208.65 4.52772C208.65 5.33191 208.443 5.95931 208.03 6.40992C207.618 6.86054 207.044 7.08606 206.311 7.08649C205.884 7.09486 205.462 6.98713 205.092 6.77482C204.736 6.56423 204.452 6.25135 204.277 5.87701C204.08 5.45395 203.982 4.99121 203.992 4.52452C203.992 3.72674 204.197 3.10383 204.606 2.65578C205.015 2.20773 205.593 1.9837 206.338 1.9837C207.05 1.9837 207.614 2.21286 208.029 2.67117C208.444 3.12948 208.651 3.74833 208.65 4.52772ZM205.066 4.52772C205.066 5.6641 205.486 6.23207 206.326 6.23164C207.157 6.23164 207.572 5.66367 207.572 4.52772C207.572 3.40332 207.154 2.84112 206.317 2.84112C205.877 2.84112 205.559 2.98648 205.362 3.2772C205.165 3.56792 205.066 3.98476 205.066 4.52772Z" fill="#262F36"/>
<path d="M212.678 5.9963L212.735 5.78275C212.857 5.34026 212.963 5.00059 213.052 4.76373L214.155 2.07607H215.548V6.99737H214.586V3.02134L214.506 3.28811C214.412 3.64531 214.299 3.99724 214.167 4.3424L213.09 6.9948H212.298L211.221 4.32509C211.06 3.89863 210.923 3.46334 210.811 3.02134V6.99737H209.854V2.07607H211.239L212.307 4.68357C212.4 4.92342 212.523 5.36099 212.678 5.9963Z" fill="#262F36"/>
<path d="M221.348 2.07607V6.99737H220.295V2.90334H218.087V6.99737H217.041V2.07607H221.348Z" fill="#262F36"/>
<path d="M225.924 6.99735L225.715 6.31181H225.679C225.442 6.61108 225.203 6.81501 224.963 6.9236C224.722 7.03219 224.414 7.08649 224.037 7.08649C223.553 7.08649 223.176 6.95588 222.904 6.69466C222.632 6.43344 222.497 6.06405 222.497 5.5865C222.497 5.07945 222.685 4.69681 223.062 4.43858C223.439 4.18035 224.013 4.03948 224.785 4.01597L225.635 3.98903V3.72674C225.635 3.41251 225.561 3.17737 225.414 3.02132C225.267 2.86527 225.039 2.78746 224.731 2.78789C224.485 2.78704 224.24 2.82447 224.005 2.89883C223.778 2.97205 223.555 3.05988 223.338 3.16176L223 2.41401C223.277 2.27003 223.572 2.16227 223.876 2.09336C224.171 2.02359 224.472 1.98702 224.775 1.98434C225.401 1.98434 225.873 2.12073 226.192 2.39349C226.511 2.66625 226.671 3.09507 226.671 3.67993V6.99478L225.924 6.99735ZM224.366 6.28551C224.746 6.28551 225.051 6.17863 225.281 5.96486C225.511 5.7511 225.626 5.45354 225.626 5.07218V4.64508L224.994 4.67201C224.501 4.68997 224.143 4.77227 223.919 4.91891C223.695 5.06555 223.583 5.29022 223.583 5.59291C223.583 5.81288 223.647 5.98218 223.778 6.10595C223.91 6.22972 224.105 6.28551 224.366 6.28551Z" fill="#262F36"/>
<path d="M229.178 2.07607V4.0519H231.497V2.07607H232.543V6.99737H231.497V4.87468H229.178V6.99737H228.132V2.07607H229.178Z" fill="#262F36"/>
<path d="M235.04 2.07607V4.6002C235.04 4.89392 235.016 5.32551 234.969 5.89498L237.439 2.07735H238.716V6.99865H237.711V4.51876C237.711 4.38216 237.719 4.16156 237.735 3.85566C237.751 3.54976 237.766 3.32787 237.777 3.18807L235.316 6.99737H234.039V2.07607H235.04Z" fill="#262F36"/>
<path d="M240.711 6.99734H239.541L240.911 4.98496C240.601 4.90488 240.326 4.72586 240.128 4.47513C239.938 4.23058 239.843 3.92725 239.843 3.56513C239.843 3.09955 240.009 2.73615 240.341 2.47493C240.674 2.21371 241.128 2.08246 241.703 2.08118H243.949V7.00247H242.896V5.10168H241.903L240.711 6.99734ZM240.862 3.57411C240.862 3.82635 240.958 4.01554 241.149 4.14166C241.34 4.26778 241.597 4.33084 241.919 4.33084H242.893V2.86869H241.754C241.469 2.86869 241.249 2.9294 241.093 3.05081C241.016 3.11321 240.954 3.1933 240.914 3.28436C240.874 3.37541 240.856 3.47478 240.862 3.57411Z" fill="#262F36"/>
<path d="M247.427 7.08649C246.682 7.08649 246.116 6.86909 245.729 6.43429C245.342 5.99949 245.149 5.37573 245.148 4.56299C245.148 3.73572 245.351 3.09956 245.756 2.6545C246.161 2.20944 246.746 1.98691 247.512 1.98691C247.995 1.97918 248.474 2.07793 248.914 2.27613L248.598 3.11687C248.156 2.94586 247.791 2.86035 247.503 2.86035C246.651 2.86035 246.225 3.42555 246.225 4.55594C246.225 5.10745 246.332 5.52194 246.546 5.79941C246.76 6.07688 247.071 6.21561 247.478 6.21561C247.942 6.21612 248.397 6.09635 248.8 5.86803V6.78059C248.614 6.88985 248.412 6.96947 248.202 7.01659C247.947 7.06748 247.687 7.09092 247.427 7.08649Z" fill="#262F36"/>
<path d="M251.001 4.04292H251.999C252.688 4.04292 253.196 4.16156 253.526 4.39884C253.855 4.63612 254.02 4.99204 254.02 5.4666C254.02 5.97407 253.849 6.35607 253.507 6.61259C253.164 6.86911 252.662 6.99737 252 6.99737H249.957V2.07607H251.003L251.001 4.04292ZM252.982 5.49353C252.982 5.24727 252.891 5.07519 252.708 4.97729C252.526 4.87938 252.264 4.83043 251.922 4.83043H251V6.22268H251.789C252.209 6.22268 252.514 6.16368 252.701 6.04504C252.887 5.9264 252.982 5.74235 252.982 5.49353ZM255.845 6.99737H254.794V2.07607H255.845V6.99737Z" fill="#262F36"/>
</svg>
