<svg width="62" height="40" viewBox="0 0 62 40" fill="none" xmlns="http://www.w3.org/2000/svg">
<path d="M3.44472 39.9997C2.53121 39.9997 1.65511 39.6368 1.00916 38.9908C0.363211 38.3449 0.000320672 37.4688 0.000320672 36.5553V3.49139C-0.0059051 3.03516 0.0785791 2.58223 0.248867 2.15892C0.419154 1.73561 0.671851 1.35035 0.99228 1.02551C1.31271 0.700682 1.69449 0.442752 2.11544 0.266704C2.53638 0.0906564 2.98812 0 3.4444 0C3.90068 0 4.35241 0.0906564 4.77336 0.266704C5.19431 0.442752 5.57608 0.700682 5.89651 1.02551C6.21694 1.35035 6.46964 1.73561 6.63993 2.15892C6.81021 2.58223 6.8947 3.03516 6.88847 3.49139V36.5553C6.88847 37.4687 6.52567 38.3447 5.87986 38.9906C5.23405 39.6365 4.35812 39.9995 3.44472 39.9997Z" fill="#006DB7"/>
<path d="M58.5506 39.9997C57.6371 39.9997 56.761 39.6368 56.115 38.9908C55.4691 38.3449 55.1062 37.4688 55.1062 36.5553V13.0044L47.4209 22.2281C47.0977 22.6161 46.6932 22.9282 46.2359 23.1425C45.7786 23.3567 45.2799 23.4677 44.7749 23.4677C44.27 23.4677 43.7712 23.3567 43.3139 23.1425C42.8567 22.9282 42.4521 22.6161 42.1289 22.2281L29.3851 6.93515H18.8345L7.92802 20.0233L18.8345 33.1115H30.998C31.4542 33.1053 31.9071 33.1898 32.3304 33.3601C32.7538 33.5304 33.139 33.7831 33.4639 34.1035C33.7887 34.4239 34.0466 34.8057 34.2227 35.2266C34.3987 35.6476 34.4894 36.0993 34.4894 36.5556C34.4894 37.0119 34.3987 37.4636 34.2227 37.8846C34.0466 38.3055 33.7887 38.6873 33.4639 39.0077C33.139 39.3281 32.7538 39.5808 32.3304 39.7511C31.9071 39.9214 31.4542 40.0059 30.998 39.9997H17.221C16.7162 39.9997 16.2176 39.8887 15.7604 39.6746C15.3033 39.4605 14.8988 39.1485 14.5757 38.7607L0.798739 22.2281C0.282806 21.6092 0.000244141 20.8291 0.000244141 20.0233C0.000244141 19.2176 0.282806 18.4374 0.798739 17.8186L14.5757 1.28662C14.8987 0.898624 15.3031 0.586446 15.7603 0.372217C16.2175 0.157989 16.7162 0.046958 17.221 0.0469955H30.998C31.5029 0.0469521 32.0017 0.157977 32.459 0.372203C32.9162 0.586428 33.3208 0.898609 33.644 1.28662L44.7749 14.6435L55.9059 1.28662C56.3587 0.741767 56.9685 0.349818 57.6522 0.16421C58.3359 -0.0213988 59.0602 0.00836537 59.7263 0.249444C60.3925 0.490523 60.9681 0.931185 61.3746 1.51135C61.7812 2.09152 61.9989 2.78295 61.9982 3.49139V36.5553C61.9982 37.0079 61.909 37.456 61.7357 37.8741C61.5624 38.2922 61.3084 38.6721 60.9882 38.992C60.668 39.3119 60.2879 39.5655 59.8697 39.7384C59.4514 39.9113 59.0032 40.0001 58.5506 39.9997Z" fill="#006DB7"/>
<path d="M27.6913 23.4677H20.5274C19.6139 23.4677 18.7378 23.1048 18.0918 22.4589C17.4459 21.8129 17.083 20.9368 17.083 20.0233C17.083 19.1098 17.4459 18.2337 18.0918 17.5878C18.7378 16.9418 19.6139 16.5789 20.5274 16.5789H27.6913C28.6048 16.5789 29.4809 16.9418 30.1269 17.5878C30.7728 18.2337 31.1357 19.1098 31.1357 20.0233C31.1357 20.9368 30.7728 21.8129 30.1269 22.4589C29.4809 23.1048 28.6048 23.4677 27.6913 23.4677Z" fill="#006DB7"/>
</svg>
