<svg width="30" height="30" xmlns="http://www.w3.org/2000/svg">

 <g>
  <title>background</title>
  <rect fill="none" id="canvas_background" height="402" width="582" y="-1" x="-1"/>
 </g>
 <g>
  <title>Layer 1</title>
  <path fill="#0f0f00" fill-opacity="0" stroke="#005a97" id="svg_1" d="m21.225,17.889c-0.406,-0.238001 -0.905001,-0.233 -1.309,0.007l-2.046,1.219c-0.458,0.273001 -1.030001,0.241001 -1.450001,-0.087c-0.726,-0.566999 -1.895,-1.521 -2.912,-2.538c-1.017,-1.017 -1.971001,-2.186 -2.538,-2.912c-0.328,-0.42 -0.360001,-0.992 -0.087,-1.45l1.219,-2.046c0.241,-0.403999 0.243,-0.907 0.005,-1.313l-3.002001,-5.128c-0.290999,-0.496 -0.868999,-0.74 -1.427999,-0.603c-0.543,0.132 -1.248,0.454 -1.987,1.194c-2.314,2.314 -3.543,6.217 5.159,14.918999s12.603999,7.474001 14.919,5.159c0.741001,-0.740999 1.062,-1.446999 1.195,-1.990999c0.135,-0.558001 -0.105,-1.132 -0.599998,-1.422001c-1.236,-0.723 -3.902,-2.283998 -5.138,-3.007999z"/>
 </g>
</svg>