<svg width="30" height="30" xmlns="http://www.w3.org/2000/svg">

 <g>
  <title>background</title>
  <rect fill="none" id="canvas_background" height="402" width="582" y="-1" x="-1"/>
 </g>
 <g>
  <title>Layer 1</title>
  <path id="svg_1" d="m24,13.328l0,10.672l-18,0l0,-14l10.672001,0l6,-6l-16.672001,0c-1.105,0 -2,0.895 -2,2l0,18c0,1.105 0.895,2 2,2l18,0c1.105,0 2,-0.895 2,-2l0,-12.671l-2,1.999z"/>
  <path id="svg_3" d="m28.957001,5.543l0.525,-0.525c0.690001,-0.69 0.690001,-1.81 0,-2.5s-1.809999,-0.69 -2.5,0l-0.525,0.525l2.5,2.5z"/>
  <polygon id="svg_5" points="25.043,4.457 14.475,15.025 14,18 16.975,17.525 27.543,6.957  "/>
 </g>
</svg>