<svg width="30" height="30" xmlns="http://www.w3.org/2000/svg">

 <g>
  <title>background</title>
  <rect fill="none" id="canvas_background" height="402" width="582" y="-1" x="-1"/>
 </g>
 <g>
  <title>Layer 1</title>
  <path id="svg_1" d="m25.707001,9.793l-5.5,-5.5c-0.188002,-0.188 -0.442001,-0.293 -0.707001,-0.293l-8.5,0c-1.105,0 -2,0.895 -2,2l0,18c0,1.105 0.895,2 2,2l13,0c1.105,0 2,-0.895 2,-2l0,-13.5c0,-0.265 -0.105,-0.519 -0.292999,-0.707zm-6.707001,11.207l-5,0c-0.552,0 -1,-0.448 -1,-1c0,-0.552 0.448,-1 1,-1l5,0c0.552,0 1,0.448 1,1c0,0.552 -0.448,1 -1,1zm2,-4l-7,0c-0.552,0 -1,-0.448 -1,-1c0,-0.552 0.448,-1 1,-1l7,0c0.552,0 1,0.448 1,1c0,0.552 -0.448,1 -1,1zm-1,-6c-0.552,0 -1,-0.448 -1,-1l0,-4.096l5.096001,5.096l-4.096001,0z"/>
  <path id="svg_2" d="m7,24l0,-18c0,-0.732 0.212,-1.409 0.556,-2l-1.556,0c-1.105,0 -2,0.895 -2,2l0,18c0,1.105 0.895,2 2,2l1.556,0c-0.344,-0.591 -0.556,-1.268 -0.556,-2z"/>
 </g>
</svg>