<svg width="30" height="30" xmlns="http://www.w3.org/2000/svg">

 <g>
  <title>background</title>
  <rect fill="none" id="canvas_background" height="402" width="582" y="-1" x="-1"/>
 </g>
 <g>
  <title>Layer 1</title>
  <path id="svg_2" d="m13.98,20.194c-0.046,0.959 -0.421,1.903999 -1.150999,2.635l-2,2c-1.56,1.559999 -4.098001,1.559999 -5.657001,0s-1.56,-4.098 0,-5.657l2,-2c0.78,-0.780001 1.804,-1.169001 2.829,-1.169001s2.049,0.389999 2.829,1.169001l1.414001,-1.414001c-1.135,-1.134001 -2.641001,-1.758 -4.244,-1.758s-3.109,0.624 -4.243,1.757l-2,2c-1.133,1.134001 -1.757,2.639999 -1.757,4.243s0.624,3.108999 1.757,4.243s2.64,1.757 4.243,1.757s3.109,-0.624001 4.243,-1.757l2,-2c1.133,-1.134001 1.757,-2.639999 1.757,-4.243c0,-0.551001 -0.079,-1.087999 -0.221,-1.605l-1.799001,1.799z"/>
  <path id="svg_3" d="m26.243,3.757c-1.134001,-1.133 -2.639999,-1.757 -4.243,-1.757s-3.108999,0.624 -4.243,1.757l-2,2c-1.133,1.134 -1.757,2.64 -1.757,4.243s0.624,3.109 1.757,4.243l1.414,-1.414c-1.559999,-1.56 -1.559999,-4.098001 0,-5.657001l2,-2c0.780001,-0.78 1.804001,-1.169 2.829,-1.169s2.049,0.39 2.829,1.169c1.559999,1.56 1.559999,4.098001 0,5.657001l-2,2c-0.73,0.73 -1.676001,1.105 -2.635,1.150999l-1.799,1.799001c0.517,0.141999 1.053999,0.221 1.605,0.221c1.603001,0 3.108999,-0.624 4.243,-1.757l2,-2c1.132999,-1.134 1.757,-2.64 1.757,-4.243s-0.624001,-3.109 -1.757,-4.243z"/>
  <line id="svg_4" fill="none" stroke="#000000" stroke-width="2" stroke-linecap="round" stroke-miterlimit="10" y2="10" y1="20" x2="20" x1="10"/>
 </g>
</svg>