<svg width="30" height="30" xmlns="http://www.w3.org/2000/svg">

 <g>
  <title>background</title>
  <rect fill="none" id="canvas_background" height="402" width="582" y="-1" x="-1"/>
 </g>
 <g>
  <title>Layer 1</title>
  <circle id="svg_1" r="1" cy="10" cx="20"/>
  <path id="svg_3" d="m13,19c0,1.105 -0.895,2 -2,2s-2,-0.895 -2,-2s0.895,-2 2,-2s2,0.895 2,2zm9,-0.334999l0,0.669998c0,0.241001 -0.171,0.447001 -0.408001,0.491001l-0.987999,0.184999c-0.410999,0.077 -0.714001,0.406 -0.797001,0.816c-0.068998,0.341 -0.157,0.676001 -0.264,1.002001c-0.129999,0.396 -0.032,0.829 0.284,1.1l0.759001,0.650999c0.182999,0.157 0.227999,0.421 0.107,0.629999l-0.335001,0.580002c-0.119999,0.207998 -0.372,0.301998 -0.598999,0.221998l-0.953001,-0.334999c-0.393,-0.138 -0.817999,-0.006001 -1.096001,0.305c-0.228998,0.257 -0.473,0.5 -0.73,0.73c-0.310999,0.278 -0.442999,0.702 -0.305,1.096001l0.335001,0.952999c0.08,0.227001 -0.013,0.479 -0.222,0.599001l-0.58,0.334999c-0.208,0.120001 -0.473001,0.075001 -0.63,-0.107l-0.651,-0.758999c-0.271,-0.316 -0.704,-0.414 -1.1,-0.284c-0.325999,0.107 -0.66,0.195 -1.002,0.264c-0.41,0.083 -0.738999,0.386 -0.816,0.797001l-0.184999,0.987999c-0.042001,0.235001 -0.248,0.406 -0.489,0.406l-0.67,0c-0.241,0 -0.447,-0.171 -0.491,-0.408001l-0.184999,-0.987999c-0.077001,-0.410999 -0.406,-0.714001 -0.816,-0.797001c-0.341001,-0.068998 -0.676001,-0.157 -1.002001,-0.264c-0.395999,-0.129999 -0.829,-0.032 -1.099999,0.284l-0.651,0.759001c-0.157,0.182999 -0.421,0.227999 -0.63,0.107l-0.58,-0.335001c-0.208,-0.119999 -0.302,-0.372 -0.222,-0.598999l0.335,-0.953001c0.138,-0.393999 0.006,-0.817999 -0.305,-1.096001c-0.257,-0.228998 -0.5,-0.473 -0.73,-0.73c-0.278,-0.310999 -0.702,-0.442999 -1.096,-0.305l-0.952,0.337c-0.227,0.08 -0.479,-0.012999 -0.599,-0.221998l-0.335,-0.580002c-0.12,-0.207998 -0.075,-0.473 0.107,-0.629999l0.759,-0.650999c0.316,-0.271 0.414,-0.704 0.284,-1.1c-0.107,-0.326 -0.195,-0.66 -0.264,-1.002001c-0.083,-0.41 -0.386,-0.739 -0.797,-0.816l-0.988,-0.184999c-0.236,-0.044001 -0.407,-0.25 -0.407,-0.491001l0,-0.669998c0,-0.241001 0.171,-0.447001 0.408,-0.491001l0.988,-0.184999c0.411,-0.077 0.714,-0.406 0.797,-0.816c0.069,-0.341 0.157,-0.676001 0.264,-1.002001c0.13,-0.396 0.032,-0.829 -0.284,-1.099999l-0.759,-0.651c-0.183,-0.157001 -0.228,-0.421 -0.107,-0.63l0.335,-0.58c0.12,-0.208 0.372,-0.302 0.599,-0.222l0.953,0.335c0.394,0.138 0.818,0.006001 1.096,-0.305c0.229,-0.257 0.473,-0.5 0.73,-0.73c0.311,-0.278 0.443,-0.702 0.305,-1.096l-0.337,-0.952001c-0.08,-0.227 0.013,-0.479 0.222,-0.599l0.58,-0.335c0.208,-0.12 0.473,-0.075 0.63,0.107l0.651,0.759c0.271,0.316 0.704,0.414001 1.099999,0.284c0.326,-0.107 0.661,-0.195001 1.002001,-0.264c0.41,-0.083 0.738999,-0.386001 0.816,-0.797l0.184999,-0.988001c0.044001,-0.236 0.25,-0.407 0.491,-0.407l0.67,0c0.241,0 0.447,0.171 0.491,0.408l0.184999,0.988c0.077001,0.411 0.406,0.714 0.816,0.797c0.341001,0.069 0.676001,0.157001 1.002001,0.264c0.396,0.13 0.829,0.032001 1.099999,-0.283999l0.651,-0.759001c0.157001,-0.183 0.421,-0.228 0.629999,-0.106999l0.580002,0.335c0.207998,0.12 0.301998,0.372 0.221998,0.599l-0.334999,0.952c-0.138,0.394 -0.006001,0.818 0.305,1.096c0.257,0.229 0.5,0.473001 0.73,0.73c0.278,0.311 0.702,0.443 1.096001,0.305l0.952999,-0.335c0.227001,-0.08 0.479,0.013 0.599001,0.222l0.334999,0.58c0.120001,0.207999 0.075001,0.473 -0.107,0.629999l-0.758999,0.651c-0.316,0.271001 -0.414,0.704 -0.284,1.100001c0.107,0.325998 0.195,0.660999 0.264,1.001999c0.083,0.41 0.386,0.739 0.797001,0.816l0.987999,0.184999c0.235001,0.043001 0.406,0.249001 0.406,0.490002zm-5,0.334999c0,-3.314 -2.686,-6 -6,-6s-6,2.686 -6,6s2.686,6 6,6s6,-2.686001 6,-6z"/>
  <path id="svg_4" d="m29.591999,9.174l-1.175999,-0.221c-0.305,-0.057 -0.533001,-0.299 -0.596001,-0.604c-0.059,-0.284 -0.132999,-0.563 -0.220999,-0.835c-0.096001,-0.295 -0.02,-0.616 0.214998,-0.818l0.906,-0.776c0.183001,-0.157 0.228001,-0.421 0.107,-0.63l-0.334999,-0.58c-0.120001,-0.208 -0.372,-0.302 -0.599001,-0.222l-1.128,0.397c-0.292,0.103 -0.608999,0.008 -0.816,-0.223c-0.192999,-0.215 -0.396999,-0.419 -0.612,-0.612c-0.230999,-0.207 -0.326,-0.524 -0.223,-0.816l0.396999,-1.128c0.08,-0.227 -0.013,-0.479 -0.222,-0.599l-0.58,-0.335c-0.208,-0.12 -0.473,-0.075 -0.629999,0.107l-0.777,0.906c-0.202,0.235 -0.523001,0.311 -0.818001,0.215c-0.271999,-0.088 -0.550999,-0.162 -0.834999,-0.221c-0.304001,-0.063 -0.546,-0.291 -0.604,-0.596l-0.221001,-1.176c-0.042,-0.236 -0.247999,-0.407 -0.489,-0.407l-0.669998,0c-0.241001,0 -0.447001,0.171 -0.491001,0.408l-0.221001,1.176c-0.056999,0.305 -0.299,0.533 -0.603998,0.596c-0.284,0.059 -0.563002,0.133 -0.835001,0.221c-0.295,0.096 -0.615999,0.02 -0.818001,-0.215l-0.775999,-0.906c-0.157001,-0.183 -0.421,-0.228 -0.63,-0.107l-0.58,0.335c-0.208,0.12 -0.302,0.372 -0.222,0.599l0.397,1.128c0.103,0.292 0.007999,0.609 -0.223001,0.816c-0.215,0.193 -0.419,0.397 -0.612,0.612c-0.207,0.231 -0.524,0.326 -0.816,0.223l-1.128,-0.397c-0.227,-0.08 -0.479,0.013 -0.599,0.222l-0.335,0.58c-0.12,0.208 -0.075,0.473 0.107,0.63l0.098,0.084c1.183001,0.02 2.195,0.867 2.414001,2.033999l0.059999,0.318001l0.209001,-0.245c0.459,-0.534 1.103,-0.826001 1.766999,-0.861001c0.896,-1.355 2.427999,-2.251 4.173,-2.251c2.761,0 5,2.239 5,5c0,1.745 -0.896,3.277 -2.250999,4.171c-0.035,0.664001 -0.326,1.308001 -0.860001,1.766001l-0.246,0.209999l0.318001,0.060001c1.167,0.219 2.014,1.230999 2.034,2.414l0.084,0.098c0.157,0.183001 0.421,0.228001 0.629999,0.107l0.58,-0.335001c0.208,-0.119999 0.302,-0.372 0.222,-0.598999l-0.396999,-1.128c-0.103001,-0.292 -0.007999,-0.608999 0.223,-0.816c0.215,-0.193 0.419001,-0.397 0.612,-0.612c0.207001,-0.231001 0.524,-0.326 0.816,-0.223001l1.128,0.397c0.227001,0.08 0.479,-0.013 0.599001,-0.222l0.334999,-0.58c0.120001,-0.208 0.075001,-0.473001 -0.107,-0.63l-0.906,-0.777c-0.234999,-0.202 -0.310999,-0.523 -0.214998,-0.818c0.087999,-0.271999 0.161999,-0.551 0.220999,-0.835c0.063,-0.304 0.291,-0.546 0.596001,-0.604l1.175999,-0.221c0.237001,-0.041 0.408001,-0.247 0.408001,-0.488l0,-0.67c0,-0.241 -0.171,-0.447 -0.408001,-0.491z"/>
 </g>
</svg>