<svg width="30" height="30" xmlns="http://www.w3.org/2000/svg">

 <g>
  <title>background</title>
  <rect fill="none" id="canvas_background" height="402" width="582" y="-1" x="-1"/>
 </g>
 <g>
  <title>Layer 1</title>
  <polygon id="svg_1" points="18,17 12.5,12.5 3,22 3,27 8,27 8,24 11,24 11,21 14,21 "/>
  <path id="svg_2" d="m18.5,3c-4.694,0 -8.5,3.806 -8.5,8.5c0,4.694 3.806,8.5 8.5,8.5s8.5,-3.806 8.5,-8.5c0,-4.694 -3.806,-8.5 -8.5,-8.5zm2,9c-1.381001,0 -2.5,-1.119 -2.5,-2.5c0,-1.381 1.118999,-2.5 2.5,-2.5s2.5,1.119 2.5,2.5c0,1.381 -1.118999,2.5 -2.5,2.5z"/>
 </g>
</svg>