<svg width="30" height="30" xmlns="http://www.w3.org/2000/svg">

 <g>
  <title>background</title>
  <rect fill="none" id="canvas_background" height="402" width="582" y="-1" x="-1"/>
 </g>
 <g>
  <title>Layer 1</title>
  <path id="svg_1" d="m13.44,20.559999c-0.264999,0 -0.52,-0.105 -0.707,-0.292999l-4.453,-4.453c-0.391,-0.391 -0.391,-1.023 0,-1.414001s1.023001,-0.391 1.414001,0l3.745999,3.746l10.8,-10.8c-2.201,-2.655 -5.521999,-4.346 -9.24,-4.346c-6.627,0 -12,5.373 -12,12c0,6.627001 5.373,12 12,12s12,-5.372999 12,-12c0,-2.18 -0.59,-4.218 -1.606001,-5.98l-11.246999,11.247c-0.187,0.187 -0.441,0.292999 -0.707001,0.292999z"/>
  <path id="svg_2" d="m27.707001,5.293c-0.391001,-0.391 -1.023001,-0.391 -1.414001,0l-2.052999,2.053c0.432001,0.521 0.813,1.085 1.153999,1.675l2.313002,-2.313c0.390999,-0.392 0.390999,-1.024 0,-1.415z"/>
 </g>
</svg>